<?xml version="1.0" encoding="UTF-8"?>
<!DOCTYPE svg PUBLIC "-//W3C//DTD SVG 1.1//EN" "http://www.w3.org/Graphics/SVG/1.1/DTD/svg11.dtd">
<!-- Creator: CorelDRAW 2020 (64-Bit) -->
<svg xmlns="http://www.w3.org/2000/svg" xml:space="preserve" width="12.8in" height="7.2in" version="1.1" style="shape-rendering:geometricPrecision; text-rendering:geometricPrecision; image-rendering:optimizeQuality; fill-rule:evenodd; clip-rule:evenodd"
viewBox="0 0 12800 7200"
 xmlns:xlink="http://www.w3.org/1999/xlink"
 xmlns:xodm="http://www.corel.com/coreldraw/odm/2003">
 <defs>
  <style type="text/css">
   <![CDATA[
    .fil1 {fill:#CCFF00}
    .fil0 {fill:#CCFF00;fill-rule:nonzero}
   ]]>
  </style>
 </defs>
 <g id="Layer_x0020_1">
  <metadata id="CorelCorpID_0Corel-Layer"/>
  <g id="_1672785335984">
   <path class="fil0" d="M6633.78 2932.61c0,0 0.02,0 0.02,0 16.75,0 30.33,13.58 30.33,30.33 0,3.1 -0.48,6.19 -1.41,9.14l-88.64 282.11 -5.95 18.7c-3.89,12.67 -15.6,21.33 -28.86,21.33 -0.02,0 -0.06,0 -0.09,0l-290.83 0c-1.05,-0.03 -1.88,-0.89 -1.88,-1.94 0,-0.19 0.03,-0.37 0.08,-0.56l10.94 -35.04c0.09,-0.22 0.14,-0.46 0.14,-0.7 0,-1 -0.81,-1.8 -1.8,-1.8 -0.05,0 -0.09,0 -0.14,0l-365.34 0c-37.34,0.06 -73.28,14.38 -100.41,40.02l0.01 0.01c-38.61,36.64 -60.59,87.59 -60.66,140.85 0,0.02 0,0.07 0,0.09 0,45.54 16.05,89.64 45.28,124.53 7.96,9.54 16.85,18.33 26.46,26.19 26.57,21.06 59.53,32.55 93.44,32.55 0.33,0 0.68,0 1.01,0l523.36 -0c16.74,0.01 30.31,13.59 30.31,30.33 0,3.05 -0.46,6.09 -1.37,9l-53.74 170.76c-3.97,12.64 -15.69,21.28 -28.94,21.33l-290.83 0c-1.05,-0.03 -1.88,-0.89 -1.88,-1.94 0,-0.19 0.03,-0.37 0.08,-0.56l8.17 -25.9c0.03,-0.14 0.05,-0.28 0.05,-0.42 0,-1.07 -0.87,-1.94 -1.94,-1.94 -0.26,0 -0.51,0.05 -0.74,0.15 -22.35,10.27 -45.56,18.83 -69.22,25.36 -12.66,3.46 -25.78,5.25 -38.91,5.25 -0.14,0 -0.3,0 -0.44,0l-172.57 0c-0.19,0 -0.37,0 -0.55,0 -13.28,0 -26.53,-1.77 -39.33,-5.26 -122.12,-33.8 -225.67,-115.32 -287.11,-226.14 -10.57,-18.84 -19.95,-38.7 -27.7,-58.89 -20.68,-53.7 -31.41,-110.96 -31.41,-168.55 0,-0.46 0,-0.91 0,-1.37 0,-20.58 1.33,-41.22 4,-61.63 1.38,-11.5 3.32,-22.71 5.68,-33.93 2.77,-13.85 6.09,-26.87 10.11,-40.02 45.29,-150.46 162.55,-268.59 312.58,-315.1 13.93,-4.2 28.39,-6.34 42.93,-6.34 0.22,0 0.49,0 0.7,0l847.01 0z"/>
   <path class="fil0" d="M7269.31 3788.21c0,20.6 -1.39,41.2 -4.01,61.62 -3.26,24.94 -8.55,49.74 -15.78,73.81 -44.48,148.26 -158.92,265.35 -306.06,313.26 -16.99,5.58 -34.77,8.45 -52.64,8.47l-902 0c-0.01,0 -0.02,0 -0.02,0 -16.75,0 -30.33,-13.58 -30.33,-30.33 0,-3.1 0.48,-6.19 1.41,-9.14l81.71 -260.92c3.94,-12.67 15.67,-21.31 28.94,-21.32l708.11 0c0.15,0 0.33,0 0.48,0 55.2,0 106.88,-27.29 138.02,-72.85l0.69 -0.97c20.74,-31.57 31.81,-68.62 31.81,-106.42 0,-45.73 -16.19,-90.04 -45.66,-125.01l0 -0.97c-31.56,-36.72 -77.62,-57.89 -126.07,-57.89 -0.53,0 -1.09,0 -1.62,0l-572.53 0.01c-0,0 -0.02,0 -0.02,0 -16.75,0 -30.33,-13.58 -30.33,-30.33 0,-3.1 0.48,-6.19 1.41,-9.14l53.04 -170.76c4.02,-12.59 15.72,-21.16 28.95,-21.19l623.9 -0c0.26,0 0.52,0 0.78,0 14.61,0 29.16,1.96 43.25,5.81 121.25,34.1 223.96,115.49 285,225.63 10.61,18.79 20,38.65 27.74,58.83 21,54 31.83,111.53 31.83,169.51 0,0.06 0,0.23 0,0.28l0 -0.01z"/>
   <circle class="fil1" cx="6067.57" cy="4561.59" r="199.81"/>
   <circle class="fil1" cx="6170.39" cy="2625.83" r="199.81"/>
  </g>
 </g>
</svg>
